<svg width="78" height="78" viewBox="0 0 78 78" fill="none" xmlns="http://www.w3.org/2000/svg">
<g filter="url(#filter0_dd_2_117)">
<path d="M17.745 6.5H13.1625C10.14 6.5 8.6125 10.1725 10.7575 12.3175L29.38 30.94C30.6446 32.2071 32.1466 33.2123 33.8001 33.8981C35.4536 34.584 37.2261 34.9371 39.0163 34.9371C40.8064 34.9371 42.5789 34.584 44.2324 33.8981C45.8859 33.2123 47.388 32.2071 48.6525 30.94L67.275 12.3175C69.42 10.1725 67.8925 6.5 64.87 6.5H60.2875C57.59 6.5 54.99 7.5725 53.0725 9.49L41.4375 21.125C40.105 22.4575 37.96 22.4575 36.6275 21.125L24.9925 9.49C23.0425 7.5725 20.4425 6.5 17.745 6.5ZM17.745 71.3992H13.1625C10.14 71.3992 8.6125 67.7267 10.7575 65.5817L29.38 46.9592C30.6446 45.6922 32.1466 44.687 33.8001 44.0011C35.4536 43.3152 37.2261 42.9622 39.0163 42.9622C40.8064 42.9622 42.5789 43.3152 44.2324 44.0011C45.8859 44.687 47.388 45.6922 48.6525 46.9592L67.275 65.5817C69.42 67.7267 67.8925 71.3992 64.87 71.3992H60.2875C57.59 71.3992 54.99 70.3267 53.0725 68.4092L41.4375 56.7742C40.105 55.4417 37.96 55.4417 36.6275 56.7742L24.9925 68.4092C23.0425 70.3267 20.4425 71.3992 17.745 71.3992V71.3992Z" fill="#09D3F9"/>
</g>
<defs>
<filter id="filter0_dd_2_117" x="-16.2449" y="-19.5" width="110.522" height="116.899" filterUnits="userSpaceOnUse" color-interpolation-filters="sRGB">
<feFlood flood-opacity="0" result="BackgroundImageFix"/>
<feColorMatrix in="SourceAlpha" type="matrix" values="0 0 0 0 0 0 0 0 0 0 0 0 0 0 0 0 0 0 127 0" result="hardAlpha"/>
<feOffset/>
<feGaussianBlur stdDeviation="13"/>
<feComposite in2="hardAlpha" operator="out"/>
<feColorMatrix type="matrix" values="0 0 0 0 0.141176 0 0 0 0 0.862745 0 0 0 0 0.988235 0 0 0 1 0"/>
<feBlend mode="normal" in2="BackgroundImageFix" result="effect1_dropShadow_2_117"/>
<feColorMatrix in="SourceAlpha" type="matrix" values="0 0 0 0 0 0 0 0 0 0 0 0 0 0 0 0 0 0 127 0" result="hardAlpha"/>
<feOffset dy="4"/>
<feGaussianBlur stdDeviation="2"/>
<feComposite in2="hardAlpha" operator="out"/>
<feColorMatrix type="matrix" values="0 0 0 0 0 0 0 0 0 0 0 0 0 0 0 0 0 0 0.25 0"/>
<feBlend mode="normal" in2="effect1_dropShadow_2_117" result="effect2_dropShadow_2_117"/>
<feBlend mode="normal" in="SourceGraphic" in2="effect2_dropShadow_2_117" result="shape"/>
</filter>
</defs>
</svg>
